<svg width="24" height="24" viewBox="0 0 24 24" fill="none" xmlns="http://www.w3.org/2000/svg">
<path d="M13.25 5.81251C13.25 6.14403 13.1183 6.46197 12.8839 6.69639C12.6495 6.93081 12.3315 7.06251 12 7.06251C11.6685 7.06251 11.3505 6.93081 11.1161 6.69639C10.8817 6.46197 10.75 6.14403 10.75 5.81251C10.75 5.48099 10.8817 5.16305 11.1161 4.92863C11.3505 4.69421 11.6685 4.56251 12 4.56251C12.3315 4.56251 12.6495 4.69421 12.8839 4.92863C13.1183 5.16305 13.25 5.48099 13.25 5.81251ZM13.29 0.906261C12.9155 0.632788 12.4637 0.485413 12 0.485413C11.5363 0.485413 11.0845 0.632788 10.71 0.906261L1.43375 7.67501C0.21125 8.56626 0.8425 10.5 2.35375 10.5H2.625V17.75C2.06055 18.0381 1.58671 18.4765 1.25582 19.017C0.924937 19.5574 0.749882 20.1788 0.75 20.8125V22.6875C0.75 23.2038 1.17 23.625 1.6875 23.625H22.3125C22.5611 23.625 22.7996 23.5262 22.9754 23.3504C23.1512 23.1746 23.25 22.9361 23.25 22.6875V20.8125C23.2501 20.1788 23.0751 19.5574 22.7442 19.017C22.4133 18.4765 21.9394 18.0381 21.375 17.75V10.5H21.6462C23.1587 10.5 23.7875 8.56626 22.5662 7.67501L13.29 0.905011V0.906261ZM11.815 2.42001C11.8685 2.3809 11.9331 2.35982 11.9994 2.35982C12.0657 2.35982 12.1302 2.3809 12.1838 2.42001L20.6875 8.62501H3.3125L11.8162 2.42001H11.815ZM19.5 10.5V17.375H17V10.5H19.5ZM15.125 10.5V17.375H12.9375V10.5H15.125ZM11.0625 10.5V17.375H8.875V10.5H11.0625ZM4.1875 19.25H19.8125C20.675 19.25 21.375 19.95 21.375 20.8125V21.75H2.625V20.8125C2.625 19.95 3.325 19.25 4.1875 19.25ZM4.5 17.375V10.5H7V17.375H4.5Z" fill="white"/>
</svg>
