<svg width="20" height="24" viewBox="0 0 20 24" fill="none" xmlns="http://www.w3.org/2000/svg">
<path d="M18 16.6685H20V18.8909H0V16.6685H2V8.88985C2 6.53211 2.84285 4.27095 4.34315 2.60378C5.84344 0.936607 7.87827 0 10 0C12.1217 0 14.1566 0.936607 15.6569 2.60378C17.1571 4.27095 18 6.53211 18 8.88985V16.6685ZM16 16.6685V8.88985C16 7.12155 15.3679 5.42567 14.2426 4.17529C13.1174 2.92492 11.5913 2.22246 10 2.22246C8.4087 2.22246 6.88258 2.92492 5.75736 4.17529C4.63214 5.42567 4 7.12155 4 8.88985V16.6685H16ZM7 21.1134H13V23.3359H7V21.1134Z" fill="white"/>
</svg>
