<svg width="22" height="19" viewBox="0 0 22 19" fill="none" xmlns="http://www.w3.org/2000/svg">
<path d="M19.8698 8.07008C20.3438 8.75904 20.3438 9.68914 19.8698 10.377C18.3768 12.5428 14.7948 17.0022 10.6128 17.0022C6.4308 17.0022 2.8488 12.5428 1.3558 10.377C1.12519 10.0471 1 9.64127 1 9.22353C1 8.8058 1.12519 8.39996 1.3558 8.07008C2.8488 5.90429 6.4308 1.44492 10.6128 1.44492C14.7948 1.44492 18.3768 5.90429 19.8698 8.07008V8.07008Z" stroke="white" stroke-width="2" stroke-linecap="round" stroke-linejoin="round"/>
<path d="M10.6128 12.5572C12.2696 12.5572 13.6128 11.0647 13.6128 9.22353C13.6128 7.38238 12.2696 5.88983 10.6128 5.88983C8.95594 5.88983 7.61279 7.38238 7.61279 9.22353C7.61279 11.0647 8.95594 12.5572 10.6128 12.5572Z" stroke="white" stroke-width="2" stroke-linecap="round" stroke-linejoin="round"/>
</svg>
