<svg width="24" height="19" viewBox="0 0 24 19" fill="none" xmlns="http://www.w3.org/2000/svg">
<path d="M4.36311 18.9056V17.648C4.36311 17.1659 4.07492 16.8516 3.58095 16.8516C3.33401 16.8516 3.06645 16.9354 2.8812 17.2079C2.7372 16.9773 2.53142 16.8516 2.2227 16.8516C2.01683 16.8516 1.81114 16.9144 1.64642 17.145V16.8935H1.21423V18.9056H1.64642V17.7947C1.64642 17.4385 1.83167 17.2707 2.11986 17.2707C2.40786 17.2707 2.55205 17.4594 2.55205 17.7947V18.9056H2.98423V17.7947C2.98423 17.4385 3.18992 17.2707 3.45748 17.2707C3.74567 17.2707 3.88967 17.4594 3.88967 17.7947V18.9056H4.36311ZM10.7635 16.8935H10.0639V16.2857H9.63167V16.8935H9.24064V17.2916H9.63158V18.2139C9.63158 18.6751 9.81683 18.9475 10.3108 18.9475C10.496 18.9475 10.7017 18.8847 10.8459 18.8008L10.7224 18.4235C10.5989 18.5073 10.4549 18.5283 10.352 18.5283C10.1462 18.5283 10.0639 18.4026 10.0639 18.1929V17.2916H10.7635V16.8935ZM14.4269 16.8515C14.18 16.8515 14.0153 16.9773 13.9124 17.145V16.8935H13.4802V18.9056H13.9124V17.7738C13.9124 17.4385 14.0564 17.2498 14.324 17.2498C14.4063 17.2498 14.5092 17.2708 14.5915 17.2917L14.715 16.8726C14.6327 16.8516 14.5092 16.8516 14.4269 16.8516V16.8515ZM8.89076 17.0611C8.68489 16.9144 8.3968 16.8516 8.08808 16.8516C7.5942 16.8516 7.26495 17.1031 7.26495 17.5013C7.26495 17.8367 7.51189 18.0253 7.94408 18.0882L8.14986 18.1092C8.37627 18.151 8.49973 18.2139 8.49973 18.3188C8.49973 18.4654 8.33511 18.5703 8.04692 18.5703C7.75883 18.5703 7.53242 18.4654 7.38833 18.3607L7.18255 18.696C7.40895 18.8637 7.71767 18.9475 8.0263 18.9475C8.60258 18.9475 8.93192 18.6751 8.93192 18.2978C8.93192 17.9414 8.66436 17.7528 8.2527 17.69L8.04692 17.6689C7.86167 17.6479 7.71767 17.6061 7.71767 17.4804C7.71767 17.3336 7.86167 17.2498 8.08808 17.2498C8.33511 17.2498 8.58205 17.3545 8.70551 17.4175L8.89076 17.0611ZM20.3747 16.8516C20.1276 16.8516 19.963 16.9773 19.8601 17.145V16.8935H19.4279V18.9056H19.8601V17.7738C19.8601 17.4385 20.0042 17.2498 20.2716 17.2498C20.354 17.2498 20.457 17.2708 20.5393 17.2917L20.6628 16.8726C20.5805 16.8516 20.457 16.8516 20.3747 16.8516ZM14.8591 17.8995C14.8591 18.5073 15.2706 18.9475 15.9087 18.9475C16.1968 18.9475 16.4026 18.8847 16.6084 18.717L16.4026 18.3607C16.238 18.4864 16.0733 18.5492 15.8881 18.5492C15.5382 18.5492 15.2913 18.2978 15.2913 17.8995C15.2913 17.5223 15.5382 17.2707 15.8881 17.2498C16.0733 17.2498 16.238 17.3126 16.4026 17.4385L16.6084 17.0821C16.4026 16.9144 16.1968 16.8516 15.9087 16.8516C15.2706 16.8516 14.8591 17.2917 14.8591 17.8995ZM18.8517 17.8995V16.8935H18.4195V17.145C18.2754 16.9564 18.0696 16.8516 17.8021 16.8516C17.2464 16.8516 16.8142 17.2917 16.8142 17.8995C16.8142 18.5073 17.2464 18.9475 17.8021 18.9475C18.0902 18.9475 18.296 18.8427 18.4195 18.6541V18.9056H18.8517V17.8995ZM17.267 17.8995C17.267 17.5432 17.4934 17.2498 17.8638 17.2498C18.2136 17.2498 18.4607 17.5223 18.4607 17.8995C18.4607 18.2558 18.2136 18.5492 17.8638 18.5492C17.4934 18.5282 17.267 18.2558 17.267 17.8995ZM12.1013 16.8516C11.525 16.8516 11.1134 17.2707 11.1134 17.8995C11.1134 18.5283 11.525 18.9475 12.1219 18.9475C12.41 18.9475 12.6981 18.8637 12.9245 18.6751L12.7187 18.3607C12.554 18.4864 12.3483 18.5703 12.1425 18.5703C11.8749 18.5703 11.6074 18.4445 11.5456 18.0881H13.0069V17.9205C13.0275 17.2707 12.657 16.8516 12.1012 16.8516H12.1013ZM12.1013 17.2288C12.3688 17.2288 12.5541 17.3965 12.5952 17.711H11.5662C11.6074 17.4385 11.7926 17.2288 12.1013 17.2288ZM22.8237 17.8995V16.097H22.3915V17.145C22.2474 16.9564 22.0416 16.8516 21.7741 16.8516C21.2184 16.8516 20.7862 17.2917 20.7862 17.8995C20.7862 18.5073 21.2184 18.9475 21.7741 18.9475C22.0623 18.9475 22.268 18.8427 22.3915 18.6541V18.9056H22.8237V17.8995ZM21.239 17.8995C21.239 17.5432 21.4654 17.2498 21.8359 17.2498C22.1857 17.2498 22.4327 17.5223 22.4327 17.8995C22.4327 18.2558 22.1857 18.5492 21.8359 18.5492C21.4654 18.5282 21.239 18.2558 21.239 17.8995ZM6.79152 17.8995V16.8935H6.35933V17.145C6.21523 16.9564 6.00945 16.8516 5.74189 16.8516C5.18623 16.8516 4.75405 17.2917 4.75405 17.8995C4.75405 18.5073 5.18623 18.9475 5.74189 18.9475C6.03008 18.9475 6.23586 18.8427 6.35933 18.6541V18.9056H6.79152V17.8995ZM5.18623 17.8995C5.18623 17.5432 5.41264 17.2498 5.78305 17.2498C6.13292 17.2498 6.37995 17.5223 6.37995 17.8995C6.37995 18.2558 6.13292 18.5492 5.78305 18.5492C5.41264 18.5282 5.18623 18.2558 5.18623 17.8995Z" fill="white"/>
<path d="M8.7467 1.61385H15.2295V13.477H8.7467V1.61385Z" fill="#FF5F00"/>
<path d="M9.15834 7.54548C9.15834 5.13516 10.2697 2.99723 11.9778 1.61385C10.7225 0.607809 9.13781 0 7.40906 0C3.31341 0 0 3.37446 0 7.54548C0 11.7164 3.31341 15.091 7.40897 15.091C9.13772 15.091 10.7224 14.4832 11.9778 13.477C10.2697 12.1146 9.15834 9.95581 9.15834 7.54548Z" fill="#EB001B"/>
<path d="M23.9762 7.54548C23.9762 11.7164 20.6628 15.091 16.5672 15.091C14.8385 15.091 13.2538 14.4832 11.9984 13.477C13.7272 12.0937 14.8179 9.95581 14.8179 7.54548C14.8179 5.13516 13.7065 2.99723 11.9984 1.61385C13.2537 0.607809 14.8385 0 16.5672 0C20.6628 0 23.9763 3.39546 23.9763 7.54548H23.9762Z" fill="#F79E1B"/>
</svg>
