<svg width="99" height="80" viewBox="0 0 99 80" fill="none" xmlns="http://www.w3.org/2000/svg">
<g clip-path="url(#clip0_94_28)">
<g filter="url(#filter0_f_94_28)">
<path d="M89.8905 46.7309C89.8802 46.6791 89.8647 46.6273 89.844 46.5703L89.8285 46.5185L85.5608 39.0719C85.4108 38.8076 85.1314 38.647 84.8314 38.6418L81.381 38.6004L83.802 8.75712C83.802 8.71048 83.802 8.66384 83.802 8.6172V8.55502C83.7813 8.46174 83.7503 8.36847 83.7089 8.29592L83.6675 8.22337C83.6364 8.17155 83.5951 8.12491 83.5485 8.08346L83.4088 7.96427L83.383 7.95391C83.3261 7.91763 83.2588 7.89172 83.1916 7.87617L83.1191 7.86063C83.0467 7.84508 82.9691 7.8399 82.8967 7.84508H82.8243C82.7415 7.86581 82.6588 7.88654 82.5863 7.92281L44.7876 26.0599C44.591 26.1532 44.4358 26.319 44.3582 26.5263L39.0714 40.4089L11.4892 16.3384C11.184 16.0741 10.6978 16.0638 10.3874 16.3229C10.0615 16.5871 9.97874 17.0432 10.1857 17.4059L23.8423 41.4867L21.6593 41.2225C21.3334 41.1862 21.023 41.3313 20.8471 41.6007L7.93025 61.08L7.89921 61.1318C7.863 61.194 7.83714 61.2665 7.82162 61.3391L7.8061 61.4116C7.79576 61.4945 7.79058 61.5722 7.80093 61.6448L7.81127 61.7122C7.82679 61.7899 7.85266 61.8624 7.8837 61.9246L7.95094 62.0334C7.98715 62.0853 8.02854 62.1267 8.08027 62.1785L8.13717 62.2252C8.18373 62.2615 8.23546 62.2925 8.29753 62.3185L8.36995 62.3495C8.44755 62.3755 8.53031 62.391 8.60791 62.3962L50.8451 64.2254L58.1183 71.6046L58.2372 71.7031C58.2941 71.7394 58.3407 71.7601 58.3459 71.7601L58.4286 71.7964C58.5269 71.8326 58.6252 71.8534 58.7235 71.8534H58.827C58.8528 71.843 58.8787 71.8378 58.8994 71.8326L59.0546 71.7808C59.0856 71.7653 59.1218 71.7497 59.1529 71.729C59.1787 71.7135 59.2046 71.6927 59.2304 71.6772C59.2615 71.6565 59.2925 71.6305 59.3287 71.5891C59.3442 71.5735 59.3598 71.558 59.3753 71.5373L61.4238 68.5317L63.0015 69.9723C63.1826 70.1381 63.4361 70.2159 63.6792 70.1899C63.9275 70.1589 64.1499 70.0241 64.2896 69.8117L80.5689 45.2696L88.8301 47.7L88.9025 47.7155C88.9542 47.7259 89.0008 47.7311 89.0525 47.7311L89.156 47.7207C89.2181 47.7155 89.2801 47.7 89.3526 47.6741C89.3681 47.6689 89.3836 47.6585 89.4043 47.6533C89.4302 47.643 89.456 47.6326 89.4871 47.6119L89.5595 47.5653L89.5853 47.5393C89.6164 47.5134 89.6578 47.4823 89.6888 47.4409C89.7147 47.415 89.7354 47.3839 89.7561 47.3528L89.8233 47.2491C89.844 47.2077 89.8543 47.1714 89.8647 47.1403C89.875 47.1041 89.8854 47.0678 89.8905 47.0367C89.9009 46.9797 89.9061 46.9175 89.9061 46.8398C89.9061 46.8035 89.9061 46.762 89.8957 46.7258L89.8905 46.7309ZM79.9274 39.8078C79.9274 39.8078 79.8964 39.7922 79.8757 39.7819L84.6193 39.8389L87.9559 45.6635L79.9223 39.8078H79.9274ZM87.2575 45.9951L80.5223 44.0156L80.155 40.8183L87.2575 45.9951ZM81.8363 9.60179L55.6663 44.5027L48.8483 39.4191C48.8483 39.4191 48.8173 39.3984 48.7966 39.3932C48.7914 39.3932 48.7811 39.3828 48.7759 39.3828C48.7449 39.3673 48.7138 39.3621 48.6828 39.3569C48.6776 39.3569 48.6673 39.3569 48.6621 39.3569C48.6362 39.3569 48.6104 39.3569 48.5845 39.3569C48.5793 39.3569 48.5742 39.3569 48.569 39.3569L39.9871 41.3676L45.4342 27.0704L81.8311 9.60697L81.8363 9.60179ZM57.1251 54.105L49.7329 40.9323L55.5318 45.2541L62.2308 50.2495L57.2492 53.9029C57.182 53.9547 57.1406 54.022 57.1251 54.0998V54.105ZM59.5925 59.8985L48.7035 53.0582L46.4791 51.659L48.7966 40.6524L59.5925 59.8933V59.8985ZM48.2017 40.1498L45.8635 51.2704L33.6036 43.5699L48.2017 40.1498ZM32.7087 43.0776L25.6373 42.2174L12.2186 18.5563L38.7093 41.6681L32.7087 43.0724V43.0776ZM32.6104 43.7565L47.612 53.1826L9.3942 61.0385L21.7265 42.4402L32.6104 43.7617V43.7565ZM48.45 53.7059L59.7943 60.8312L53.9075 63.1528L51.3676 63.0439L51.352 63.0284C51.2227 62.8937 51.0106 62.8937 50.8761 63.0232L11.4323 61.3131L48.45 53.7059ZM53.9489 63.842H53.9644C54.0058 63.842 54.0523 63.8368 54.0885 63.8161L60.1047 61.4427L58.5062 70.278L52.0762 63.7539L53.9489 63.8368V63.842ZM60.8858 60.966V60.9556C60.8858 60.9504 60.8858 60.9452 60.8858 60.94C60.8858 60.9141 60.8858 60.8934 60.8858 60.8675C60.8858 60.8623 60.8858 60.8571 60.8858 60.8468C60.8806 60.8105 60.8651 60.7794 60.8496 60.7483V60.7379L57.3475 54.504C57.4458 54.5351 57.5596 54.5299 57.6527 54.4625L77.6462 39.7922L79.1825 40.2742L59.3442 69.4696L60.8806 60.966H60.8858ZM79.4929 41.0359L79.855 44.1918L63.5188 68.8219L61.7238 67.1844L79.4929 41.0359ZM77.5893 39.0667C77.5893 39.0667 77.5789 39.0667 77.5737 39.0667C77.5427 39.0667 77.5168 39.0719 77.491 39.0823C77.4703 39.0875 77.4548 39.0927 77.4341 39.103C77.4185 39.1134 77.3979 39.1186 77.3823 39.1341L62.805 49.8298L56.2146 44.9121L82.5087 9.84534L80.1344 39.103L77.5841 39.0719L77.5893 39.0667Z" fill="url(#paint0_linear_94_28)"/>
</g>
<path d="M89.8905 46.7309C89.8802 46.6791 89.8647 46.6273 89.844 46.5703L89.8285 46.5185L85.5608 39.0719C85.4108 38.8076 85.1314 38.647 84.8314 38.6418L81.381 38.6004L83.802 8.75712C83.802 8.71048 83.802 8.66384 83.802 8.6172V8.55502C83.7813 8.46174 83.7503 8.36847 83.7089 8.29592L83.6675 8.22337C83.6364 8.17155 83.5951 8.12491 83.5485 8.08346L83.4088 7.96427L83.383 7.95391C83.3261 7.91763 83.2588 7.89172 83.1916 7.87617L83.1191 7.86063C83.0467 7.84508 82.9691 7.8399 82.8967 7.84508H82.8243C82.7415 7.86581 82.6588 7.88654 82.5863 7.92281L44.7876 26.0599C44.591 26.1532 44.4358 26.319 44.3582 26.5263L39.0714 40.4089L11.4892 16.3384C11.184 16.0741 10.6978 16.0638 10.3874 16.3229C10.0615 16.5871 9.97874 17.0432 10.1857 17.4059L23.8423 41.4867L21.6593 41.2225C21.3334 41.1862 21.023 41.3313 20.8471 41.6007L7.93025 61.08L7.89921 61.1318C7.863 61.194 7.83714 61.2665 7.82162 61.3391L7.8061 61.4116C7.79576 61.4945 7.79058 61.5722 7.80093 61.6448L7.81127 61.7122C7.82679 61.7899 7.85266 61.8624 7.8837 61.9246L7.95094 62.0334C7.98715 62.0853 8.02854 62.1267 8.08027 62.1785L8.13717 62.2252C8.18373 62.2615 8.23546 62.2925 8.29753 62.3185L8.36995 62.3495C8.44755 62.3755 8.53031 62.391 8.60791 62.3962L50.8451 64.2254L58.1183 71.6046L58.2372 71.7031C58.2941 71.7394 58.3407 71.7601 58.3459 71.7601L58.4286 71.7964C58.5269 71.8326 58.6252 71.8534 58.7235 71.8534H58.827C58.8528 71.843 58.8787 71.8378 58.8994 71.8326L59.0546 71.7808C59.0856 71.7653 59.1218 71.7497 59.1529 71.729C59.1787 71.7135 59.2046 71.6927 59.2304 71.6772C59.2615 71.6565 59.2925 71.6305 59.3287 71.5891C59.3442 71.5735 59.3598 71.558 59.3753 71.5373L61.4238 68.5317L63.0015 69.9723C63.1826 70.1381 63.4361 70.2159 63.6792 70.1899C63.9275 70.1589 64.1499 70.0241 64.2896 69.8117L80.5689 45.2696L88.8301 47.7L88.9025 47.7155C88.9542 47.7259 89.0008 47.7311 89.0525 47.7311L89.156 47.7207C89.2181 47.7155 89.2801 47.7 89.3526 47.6741C89.3681 47.6689 89.3836 47.6585 89.4043 47.6533C89.4302 47.643 89.456 47.6326 89.4871 47.6119L89.5595 47.5653L89.5853 47.5393C89.6164 47.5134 89.6578 47.4823 89.6888 47.4409C89.7147 47.415 89.7354 47.3839 89.7561 47.3528L89.8233 47.2491C89.844 47.2077 89.8543 47.1714 89.8647 47.1403C89.875 47.1041 89.8854 47.0678 89.8905 47.0367C89.9009 46.9797 89.9061 46.9175 89.9061 46.8398C89.9061 46.8035 89.9061 46.762 89.8957 46.7258L89.8905 46.7309ZM79.9274 39.8078C79.9274 39.8078 79.8964 39.7922 79.8757 39.7819L84.6193 39.8389L87.9559 45.6635L79.9223 39.8078H79.9274ZM87.2575 45.9951L80.5223 44.0156L80.155 40.8183L87.2575 45.9951ZM81.8363 9.60179L55.6663 44.5027L48.8483 39.4191C48.8483 39.4191 48.8173 39.3984 48.7966 39.3932C48.7914 39.3932 48.7811 39.3828 48.7759 39.3828C48.7449 39.3673 48.7138 39.3621 48.6828 39.3569C48.6776 39.3569 48.6673 39.3569 48.6621 39.3569C48.6362 39.3569 48.6104 39.3569 48.5845 39.3569C48.5793 39.3569 48.5742 39.3569 48.569 39.3569L39.9871 41.3676L45.4342 27.0704L81.8311 9.60697L81.8363 9.60179ZM57.1251 54.105L49.7329 40.9323L55.5318 45.2541L62.2308 50.2495L57.2492 53.9029C57.182 53.9547 57.1406 54.022 57.1251 54.0998V54.105ZM59.5925 59.8985L48.7035 53.0582L46.4791 51.659L48.7966 40.6524L59.5925 59.8933V59.8985ZM48.2017 40.1498L45.8635 51.2704L33.6036 43.5699L48.2017 40.1498ZM32.7087 43.0776L25.6373 42.2174L12.2186 18.5563L38.7093 41.6681L32.7087 43.0724V43.0776ZM32.6104 43.7565L47.612 53.1826L9.3942 61.0385L21.7265 42.4402L32.6104 43.7617V43.7565ZM48.45 53.7059L59.7943 60.8312L53.9075 63.1528L51.3676 63.0439L51.352 63.0284C51.2227 62.8937 51.0106 62.8937 50.8761 63.0232L11.4323 61.3131L48.45 53.7059ZM53.9489 63.842H53.9644C54.0058 63.842 54.0523 63.8368 54.0885 63.8161L60.1047 61.4427L58.5062 70.278L52.0762 63.7539L53.9489 63.8368V63.842ZM60.8858 60.966V60.9556C60.8858 60.9504 60.8858 60.9452 60.8858 60.94C60.8858 60.9141 60.8858 60.8934 60.8858 60.8675C60.8858 60.8623 60.8858 60.8571 60.8858 60.8468C60.8806 60.8105 60.8651 60.7794 60.8496 60.7483V60.7379L57.3475 54.504C57.4458 54.5351 57.5596 54.5299 57.6527 54.4625L77.6462 39.7922L79.1825 40.2742L59.3442 69.4696L60.8806 60.966H60.8858ZM79.4929 41.0359L79.855 44.1918L63.5188 68.8219L61.7238 67.1844L79.4929 41.0359ZM77.5893 39.0667C77.5893 39.0667 77.5789 39.0667 77.5737 39.0667C77.5427 39.0667 77.5168 39.0719 77.491 39.0823C77.4703 39.0875 77.4548 39.0927 77.4341 39.103C77.4185 39.1134 77.3979 39.1186 77.3823 39.1341L62.805 49.8298L56.2146 44.9121L82.5087 9.84534L80.1344 39.103L77.5841 39.0719L77.5893 39.0667Z" fill="white"/>
</g>
<defs>
<filter id="filter0_f_94_28" x="-2.20471" y="-2.15686" width="102.111" height="84.0102" filterUnits="userSpaceOnUse" color-interpolation-filters="sRGB">
<feFlood flood-opacity="0" result="BackgroundImageFix"/>
<feBlend mode="normal" in="SourceGraphic" in2="BackgroundImageFix" result="shape"/>
<feGaussianBlur stdDeviation="5" result="effect1_foregroundBlur_94_28"/>
</filter>
<linearGradient id="paint0_linear_94_28" x1="48.8507" y1="7.84314" x2="48.8507" y2="71.8534" gradientUnits="userSpaceOnUse">
<stop stop-color="#B517E8"/>
<stop offset="1" stop-color="#00C6E9"/>
</linearGradient>
<clipPath id="clip0_94_28">
<rect width="99" height="80" fill="white"/>
</clipPath>
</defs>
</svg>
