<svg width="19" height="22" viewBox="0 0 19 22" fill="none" xmlns="http://www.w3.org/2000/svg">
<path d="M2.77087 0.166656C2.12441 0.166656 1.50442 0.423464 1.0473 0.880584C0.590182 1.3377 0.333374 1.95769 0.333374 2.60416V19.3958C0.333374 20.0423 0.590182 20.6623 1.0473 21.1194C1.50442 21.5765 2.12441 21.8333 2.77087 21.8333H10.8959C11.5384 21.8334 12.155 21.5797 12.6115 21.1275C13.0679 20.6752 13.3274 20.0611 13.3334 19.4186V17.7719C13.3334 17.5564 13.2478 17.3498 13.0954 17.1974C12.943 17.045 12.7364 16.9594 12.5209 16.9594C12.029 16.9594 11.7192 16.8262 11.5058 16.6539C11.2805 16.473 11.0941 16.1935 10.9533 15.7992C10.6575 14.9812 10.625 13.9033 10.625 12.8958C10.625 12.6899 10.5468 12.4916 10.4062 12.3412L10.2285 12.1494C10.1701 12.0841 10.1087 12.0215 10.0444 11.962C9.96421 11.8862 9.71937 11.6532 8.76171 10.6967C8.25471 10.1886 7.97304 9.75957 7.88096 9.43132C7.84403 9.31755 7.83842 9.19593 7.86471 9.07924C7.90512 8.94465 7.98154 8.82365 8.08571 8.72932C8.17967 8.62524 8.30029 8.54882 8.43454 8.50832C8.55097 8.48242 8.67223 8.48841 8.78554 8.52566C9.11379 8.61774 9.54279 8.90049 10.0509 9.40857C10.6359 9.99357 11.1905 10.5417 11.6878 11.0336C12.5111 11.8482 13.1763 12.5069 13.5511 12.9077C13.6981 13.0655 13.9017 13.1584 14.1171 13.166C14.3326 13.1736 14.5423 13.0953 14.7 12.9484C14.8577 12.8014 14.9506 12.5978 14.9583 12.3823C14.9659 12.1669 14.8876 11.9572 14.7406 11.7995C14.2792 11.3172 13.8096 10.8426 13.3323 10.376V6.73166L16.4111 9.81049C16.8683 10.2677 17.125 10.8873 17.125 11.533V21.0208C17.125 21.2363 17.2106 21.443 17.363 21.5953C17.5154 21.7477 17.7221 21.8333 17.9375 21.8333C18.153 21.8333 18.3597 21.7477 18.5121 21.5953C18.6644 21.443 18.75 21.2363 18.75 21.0208V11.5341C18.7501 11.0005 18.6451 10.4722 18.441 9.97926C18.237 9.48631 17.9378 9.03839 17.5605 8.66107L13.3334 4.43391V2.60307C13.3331 1.9568 13.0762 1.33709 12.6191 0.880201C12.162 0.423315 11.5422 0.166656 10.8959 0.166656H2.77087ZM9.42471 16.3517C9.52871 16.642 9.66412 16.9302 9.83962 17.1988C9.42585 17.3978 9.07668 17.7095 8.83232 18.0982C8.58795 18.4869 8.45833 18.9367 8.45837 19.3958V20.2083H5.20837V19.3958C5.20837 18.7494 4.95157 18.1294 4.49445 17.6723C4.03733 17.2151 3.41734 16.9583 2.77087 16.9583H1.95837V5.04166H2.77087C3.41734 5.04166 4.03733 4.78485 4.49445 4.32773C4.95157 3.87061 5.20837 3.25062 5.20837 2.60416V1.79166H8.45837V2.60416C8.45837 3.25062 8.71518 3.87061 9.1723 4.32773C9.62942 4.78485 10.2494 5.04166 10.8959 5.04166H11.7084V8.76616L11.1992 8.25916C10.625 7.68391 9.95554 7.16716 9.22754 6.96132C8.83838 6.84608 8.42552 6.83673 8.03154 6.93424C7.78712 6.99756 7.55523 7.10197 7.34579 7.24299C6.7333 7.15945 6.10967 7.22692 5.52922 7.43953C4.94877 7.65215 4.42911 8.00346 4.0155 8.46286C3.60188 8.92226 3.30686 9.47582 3.15613 10.0753C3.0054 10.6748 3.00353 11.3021 3.15068 11.9025C3.29784 12.5029 3.58955 13.0582 4.00042 13.52C4.41129 13.9819 4.92885 14.3363 5.50802 14.5524C6.08719 14.7684 6.71041 14.8396 7.32339 14.7597C7.93637 14.6798 8.52052 14.4513 9.02496 14.094C9.06612 14.835 9.16687 15.6399 9.42471 16.3517ZM4.66671 11C4.66654 10.5282 4.8204 10.0692 5.1049 9.69279C5.3894 9.31639 5.78899 9.04315 6.24296 8.91457C6.20118 9.2351 6.22626 9.56081 6.31662 9.87116C6.52246 10.6002 7.03704 11.2697 7.61337 11.8461L8.33379 12.5632C8.02736 12.8574 7.64122 13.055 7.22339 13.1314C6.80556 13.2079 6.37447 13.1599 5.98372 12.9933C5.59298 12.8267 5.25981 12.549 5.02565 12.1946C4.79149 11.8402 4.66667 11.4248 4.66671 11ZM1.95837 2.60416C1.95837 2.38867 2.04398 2.18201 2.19635 2.02963C2.34872 1.87726 2.55539 1.79166 2.77087 1.79166H3.58337V2.60416C3.58337 2.81964 3.49777 3.02631 3.3454 3.17868C3.19303 3.33105 2.98636 3.41666 2.77087 3.41666H1.95837V2.60416ZM10.0834 1.79166H10.8959C11.1114 1.79166 11.318 1.87726 11.4704 2.02963C11.6228 2.18201 11.7084 2.38867 11.7084 2.60416V3.41666H10.8959C10.6804 3.41666 10.4737 3.33105 10.3214 3.17868C10.169 3.02631 10.0834 2.81964 10.0834 2.60416V1.79166ZM11.7084 18.5833V19.3958C11.7084 19.6113 11.6228 19.818 11.4704 19.9703C11.318 20.1227 11.1114 20.2083 10.8959 20.2083H10.0834V19.3958C10.0834 19.1803 10.169 18.9737 10.3214 18.8213C10.4737 18.6689 10.6804 18.5833 10.8959 18.5833H11.7084ZM3.58337 20.2083H2.77087C2.55539 20.2083 2.34872 20.1227 2.19635 19.9703C2.04398 19.818 1.95837 19.6113 1.95837 19.3958V18.5833H2.77087C2.98636 18.5833 3.19303 18.6689 3.3454 18.8213C3.49777 18.9737 3.58337 19.1803 3.58337 19.3958V20.2083Z" fill="white"/>
</svg>
