<svg width="29" height="29" viewBox="0 0 29 29" fill="none" xmlns="http://www.w3.org/2000/svg">
<path d="M18.6688 19.9617L15.0317 16.3246C14.8988 16.1917 14.7417 16.1675 14.6571 16.1675C14.5725 16.1675 14.4154 16.1917 14.2825 16.3246L10.6334 19.9738C10.2225 20.3846 9.58211 21.0492 7.44336 21.0492L11.9263 25.52C12.606 26.1989 13.5273 26.5801 14.4879 26.5801C15.4486 26.5801 16.3699 26.1989 17.0496 25.52L21.5446 21.0371C20.445 21.0371 19.5267 20.8196 18.6688 19.9617ZM10.6334 9.02625L14.2825 12.6754C14.3792 12.7721 14.5242 12.8325 14.6571 12.8325C14.79 12.8325 14.935 12.7721 15.0317 12.6754L18.6446 9.0625C19.5025 8.16834 20.4813 7.96292 21.5809 7.96292L17.0859 3.48C16.4062 2.80116 15.4848 2.41986 14.5242 2.41986C13.5636 2.41986 12.6422 2.80116 11.9625 3.48L7.47961 7.95084C9.60628 7.95084 10.2588 8.65167 10.6334 9.02625Z" fill="white"/>
<path d="M25.5079 11.9021L22.7892 9.17126H21.2667C20.6142 9.17126 19.9617 9.43709 19.5146 9.90834L15.8896 13.5333C15.5513 13.8717 15.1042 14.0408 14.6571 14.0408C14.1967 14.0344 13.756 13.8529 13.4246 13.5333L9.77542 9.87209C9.31626 9.41293 8.68792 9.14709 8.02334 9.14709H6.24709L3.48 11.9263C2.80116 12.606 2.41986 13.5273 2.41986 14.4879C2.41986 15.4486 2.80116 16.3699 3.48 17.0496L6.24709 19.8288H8.03542C8.68792 19.8288 9.31626 19.5629 9.78751 19.1038L13.4367 15.4546C13.775 15.1163 14.2221 14.9471 14.6692 14.9471C15.1163 14.9471 15.5633 15.1163 15.9017 15.4546L19.5388 19.0917C19.9979 19.5508 20.6263 19.8167 21.2908 19.8167H22.8133L25.5321 17.0858C26.2138 16.3939 26.5939 15.4603 26.5894 14.489C26.5848 13.5177 26.196 12.5876 25.5079 11.9021Z" fill="white"/>
</svg>
