<svg width="26" height="27" viewBox="0 0 26 27" fill="none" xmlns="http://www.w3.org/2000/svg">
<path d="M13 13.3348C12.2988 13.3348 11.6133 13.5694 11.0303 14.009C10.4472 14.4485 9.99277 15.0733 9.72443 15.8043C9.45608 16.5353 9.38587 17.3396 9.52267 18.1157C9.65947 18.8917 9.99714 19.6045 10.493 20.1639C10.9888 20.7234 11.6206 21.1044 12.3083 21.2588C12.9961 21.4131 13.7089 21.3339 14.3568 21.0311C15.0046 20.7283 15.5584 20.2156 15.9479 19.5577C16.3375 18.8999 16.5455 18.1264 16.5455 17.3352C16.5455 16.2742 16.1719 15.2567 15.507 14.5065C14.8421 13.7562 13.9403 13.3348 13 13.3348ZM13 18.6687C12.7663 18.6687 12.5378 18.5905 12.3434 18.444C12.1491 18.2974 11.9976 18.0892 11.9081 17.8455C11.8187 17.6018 11.7953 17.3337 11.8409 17.0751C11.8865 16.8164 11.999 16.5788 12.1643 16.3923C12.3296 16.2058 12.5402 16.0788 12.7694 16.0274C12.9987 15.9759 13.2363 16.0023 13.4523 16.1032C13.6682 16.2042 13.8528 16.3751 13.9826 16.5944C14.1125 16.8137 14.1818 17.0715 14.1818 17.3352C14.1818 17.6889 14.0573 18.028 13.8357 18.2781C13.614 18.5282 13.3134 18.6687 13 18.6687ZM12.1609 10.2811C12.2733 10.4025 12.4058 10.4977 12.5509 10.5611C12.6924 10.6317 12.8453 10.6681 13 10.6681C13.1547 10.6681 13.3076 10.6317 13.4491 10.5611C13.5942 10.4977 13.7267 10.4025 13.8391 10.2811L16.5455 7.28079C16.7743 7.02261 16.9028 6.67246 16.9028 6.30735C16.9028 5.94224 16.7743 5.59208 16.5455 5.33391C16.3166 5.07574 16.0063 4.9307 15.6827 4.9307C15.3591 4.9307 15.0488 5.07574 14.82 5.33391L14.1818 6.12066V1.33348C14.1818 0.979817 14.0573 0.640642 13.8357 0.390566C13.614 0.140491 13.3134 0 13 0C12.6866 0 12.386 0.140491 12.1643 0.390566C11.9427 0.640642 11.8182 0.979817 11.8182 1.33348V6.12066L11.18 5.33391C10.9512 5.07574 10.6409 4.9307 10.3173 4.9307C9.99369 4.9307 9.68335 5.07574 9.45455 5.33391C9.22574 5.59208 9.09719 5.94224 9.09719 6.30735C9.09719 6.67246 9.22574 7.02261 9.45455 7.28079L12.1609 10.2811ZM21.2727 17.3352C21.2727 17.0715 21.2034 16.8137 21.0736 16.5944C20.9437 16.3751 20.7591 16.2042 20.5432 16.1032C20.3272 16.0023 20.0896 15.9759 19.8603 16.0274C19.6311 16.0788 19.4205 16.2058 19.2552 16.3923C19.09 16.5788 18.9774 16.8164 18.9318 17.0751C18.8862 17.3337 18.9096 17.6018 18.9991 17.8455C19.0885 18.0892 19.24 18.2974 19.4343 18.444C19.6287 18.5905 19.8572 18.6687 20.0909 18.6687C20.4043 18.6687 20.7049 18.5282 20.9266 18.2781C21.1482 18.028 21.2727 17.6889 21.2727 17.3352ZM22.4545 8.00086H18.9091C18.5957 8.00086 18.2951 8.14136 18.0734 8.39143C17.8518 8.64151 17.7273 8.98068 17.7273 9.33434C17.7273 9.688 17.8518 10.0272 18.0734 10.2773C18.2951 10.5273 18.5957 10.6678 18.9091 10.6678H22.4545C22.768 10.6678 23.0686 10.8083 23.2902 11.0584C23.5119 11.3085 23.6364 11.6476 23.6364 12.0013V22.6691C23.6364 23.0228 23.5119 23.362 23.2902 23.612C23.0686 23.8621 22.768 24.0026 22.4545 24.0026H3.54545C3.23202 24.0026 2.93142 23.8621 2.70978 23.612C2.48815 23.362 2.36364 23.0228 2.36364 22.6691V12.0013C2.36364 11.6476 2.48815 11.3085 2.70978 11.0584C2.93142 10.8083 3.23202 10.6678 3.54545 10.6678H7.09091C7.40435 10.6678 7.70495 10.5273 7.92658 10.2773C8.14821 10.0272 8.27273 9.688 8.27273 9.33434C8.27273 8.98068 8.14821 8.64151 7.92658 8.39143C7.70495 8.14136 7.40435 8.00086 7.09091 8.00086H3.54545C2.60514 8.00086 1.70334 8.42234 1.03844 9.17256C0.373538 9.92279 0 10.9403 0 12.0013V22.6691C0 23.7301 0.373538 24.7476 1.03844 25.4978C1.70334 26.2481 2.60514 26.6695 3.54545 26.6695H22.4545C23.3949 26.6695 24.2967 26.2481 24.9616 25.4978C25.6265 24.7476 26 23.7301 26 22.6691V12.0013C26 10.9403 25.6265 9.92279 24.9616 9.17256C24.2967 8.42234 23.3949 8.00086 22.4545 8.00086ZM4.72727 17.3352C4.72727 17.5989 4.79659 17.8568 4.92645 18.076C5.0563 18.2953 5.24088 18.4663 5.45683 18.5672C5.67278 18.6681 5.9104 18.6945 6.13965 18.6431C6.3689 18.5916 6.57948 18.4646 6.74476 18.2781C6.91004 18.0916 7.0226 17.854 7.0682 17.5954C7.1138 17.3367 7.0904 17.0686 7.00095 16.8249C6.9115 16.5812 6.76002 16.373 6.56567 16.2265C6.37132 16.0799 6.14283 16.0017 5.90909 16.0017C5.59565 16.0017 5.29505 16.1422 5.07342 16.3923C4.85179 16.6424 4.72727 16.9815 4.72727 17.3352Z" fill="white"/>
</svg>
